<?xml version="1.0" encoding="iso-8859-1"?>
<!-- Generator: Adobe Illustrator 17.1.0, SVG Export Plug-In . SVG Version: 6.00 Build 0)  -->
<!DOCTYPE svg PUBLIC "-//W3C//DTD SVG 1.1//EN" "http://www.w3.org/Graphics/SVG/1.1/DTD/svg11.dtd">
<svg version="1.1" id="Capa_1" xmlns="http://www.w3.org/2000/svg" xmlns:xlink="http://www.w3.org/1999/xlink" x="0px" y="0px"
	 viewBox="0 0 459.94 459.94" style="enable-background:new 0 0 459.94 459.94;" xml:space="preserve">
<g>
	<path d="M315.518,296.971c2.509,0,5.02-0.938,6.962-2.822c10.832-10.508,16.797-24.588,16.797-39.646v-43.32
		c0-5.523-4.478-10-10-10s-10,4.477-10,10v43.32c0,9.601-3.808,18.583-10.723,25.292c-3.964,3.845-4.061,10.176-0.215,14.14
		C310.301,295.956,312.908,296.971,315.518,296.971z"/>
	<path d="M249.134,194.74c-24.003,0-38.346,22.098-38.346,43.462s14.343,43.462,38.346,43.462s38.347-22.098,38.347-43.462
		S273.137,194.74,249.134,194.74z M249.134,261.665c-12.654,0-18.346-13.72-18.346-23.462s5.691-23.462,18.346-23.462
		c12.654,0,18.347,13.72,18.347,23.462S261.788,261.665,249.134,261.665z"/>
	<path d="M385.72,410.129c-2.77-4.777-8.887-6.407-13.666-3.636c-0.599,0.347-1.211,0.69-1.819,1.035l-22.364-95.504
		c14.297-15.81,22.104-36.022,22.104-57.521v-72.949c13.607-14.666,13.607-37.461,0-52.127V89.761
		c0-20.793-16.917-37.71-37.71-37.71c-7.561,0-14.609,2.237-20.518,6.083c-5.639-13.736-19.16-23.433-34.903-23.433
		c-7.561,0-14.609,2.237-20.518,6.083c-5.639-13.736-19.16-23.433-34.903-23.433c-7.561,0-14.609,2.237-20.518,6.083
		C195.267,9.697,181.746,0,166.003,0c-20.794,0-37.711,16.917-37.711,37.711v112.158h-17.71c-20.794,0-37.711,16.917-37.711,37.711
		v66.923c0,10.852,1.994,21.376,5.922,31.36c-0.526,2.528-0.806,5.146-0.806,7.828c0,21.144,17.202,38.346,38.347,38.346
		c1.658,0,3.287-0.118,4.89-0.323c0.296,0.18,0.603,0.346,0.923,0.498c5.786,2.733,11.723,4.801,17.749,6.188l-16.21,69.09
		c-0.585-0.332-1.175-0.663-1.751-0.997c-4.776-2.77-10.896-1.142-13.666,3.636c-2.77,4.778-1.142,10.897,3.637,13.667
		c4.498,2.608,9.226,5.16,14.051,7.586c0.009,0.004,0.018,0.007,0.027,0.012c37.887,19.031,79.448,28.548,121.012,28.548
		c41.542,0,83.087-9.507,120.959-28.521c0.026-0.013,0.05-0.029,0.076-0.042c4.818-2.418,9.545-4.969,14.053-7.582
		C386.861,421.026,388.489,414.907,385.72,410.129z M332.265,72.051c9.766,0,17.71,7.945,17.71,17.71v39.649
		c-1.148,2.871-0.889,6.112,0.656,8.754c0.956,2.522,2.895,4.559,5.358,5.631c5.968,7.2,5.587,17.925-1.156,24.667
		c-7.153,7.153-18.792,7.153-25.945,0c-3.712-3.712-5.48-8.631-5.34-13.505c0.464-1.788,0.798-3.615,1.001-5.473
		c0.878-2.545,2.31-4.939,4.339-6.967c0.518-0.518,1.08-1.012,1.721-1.511c4.358-3.394,5.14-9.677,1.746-14.034
		c-3.249-4.172-9.14-5.055-13.462-2.147c-1.259-1.99-2.706-3.876-4.339-5.634v-29.43v0v0
		C314.555,79.996,322.5,72.051,332.265,72.051z M276.845,54.7c9.766,0,17.71,7.945,17.71,17.71v17.35v0v0v29.417
		c-1.61,4.028-0.459,8.792,3.134,11.593c0.646,0.503,1.209,0.998,1.725,1.514c3.466,3.465,5.374,8.072,5.374,12.972
		c0,0.209-0.023,0.414-0.03,0.622c-0.453,1.759-0.778,3.544-0.977,5.341c-0.894,2.607-2.36,5.004-4.366,7.01
		c-3.465,3.465-8.071,5.373-12.972,5.373c-4.901,0-9.508-1.908-12.973-5.374c-3.466-3.465-5.374-8.072-5.374-12.973
		c0-0.209,0.023-0.414,0.03-0.622c0.452-1.759,0.777-3.542,0.977-5.339c0.894-2.608,2.36-5.006,4.369-7.013
		c0.515-0.515,1.077-1.009,1.72-1.509c4.356-3.394,5.138-9.677,1.743-14.034c-3.25-4.174-9.147-5.054-13.468-2.14
		c-1.246-1.979-2.689-3.869-4.332-5.64V72.411v0v0C259.134,62.645,267.079,54.7,276.845,54.7z M221.424,37.35
		c9.766,0,17.71,7.945,17.71,17.711v17.35v0v0v36.534c-1.61,4.028-0.459,8.792,3.134,11.593c0.646,0.503,1.211,1,1.726,1.513
		c3.712,3.712,5.48,8.631,5.34,13.504c-0.464,1.788-0.799,3.616-1.001,5.474c-0.878,2.545-2.31,4.939-4.339,6.967
		c-3.465,3.465-8.072,5.374-12.973,5.374s-9.508-1.908-12.973-5.374c-2.985-2.984-4.806-6.818-5.256-10.955
		c1.021-3.227,1.616-6.604,1.753-10.063c0.881-1.8,2.046-3.47,3.506-4.93c0.514-0.514,1.077-1.008,1.723-1.511
		c4.355-3.396,5.134-9.679,1.738-14.035c-3.209-4.116-8.993-5.033-13.298-2.256c-1.31-1.969-2.817-3.825-4.5-5.554V55.061
		C203.713,45.295,211.658,37.35,221.424,37.35z M166.003,20c9.766,0,17.71,7.945,17.71,17.711v17.35v46.804
		c-0.097,0.816-0.103,1.638,0,2.449v7.438c0,5.523,4.478,10,10,10c0.167,0,0.329-0.017,0.494-0.025
		c0.113,0.553,0.196,1.115,0.258,1.681c-1.021,3.227-1.616,6.604-1.753,10.063c-0.881,1.8-2.045,3.469-3.504,4.927
		c-7.153,7.154-18.792,7.152-25.945,0c-7.153-7.153-7.153-18.792-0.002-25.943c0.518-0.518,1.082-1.013,1.725-1.514
		c4.356-3.394,5.138-9.677,1.743-14.034c-3.395-4.357-9.677-5.137-14.034-1.743c-1.28,0.997-2.481,2.055-3.574,3.147
		c-0.285,0.285-0.554,0.58-0.828,0.871V37.711C148.292,27.945,156.237,20,166.003,20z M142.014,416.925l17.944-76.477h19.324
		c5.522,0,10-4.477,10-10s-4.478-10-10-10h-20.466c-1.935,0-3.887-0.084-5.801-0.251c-0.338-0.029-0.672-0.04-1.004-0.036
		c-2.324-0.239-4.643-0.607-6.95-1.111c5.979-6.765,9.618-15.643,9.618-25.359c0-1.537-0.101-3.134-0.3-4.746
		c-0.677-5.481-5.671-9.374-11.15-8.699c-5.481,0.677-9.376,5.669-8.699,11.151c0.101,0.813,0.149,1.563,0.149,2.293
		c0,10.116-8.229,18.346-18.346,18.346s-18.347-8.23-18.347-18.346c0-0.502,0.036-0.996,0.075-1.488
		c1.336-1.892,1.984-4.209,1.803-6.547c2.986-6.094,9.236-10.311,16.468-10.311c0.73,0,1.479,0.049,2.289,0.149
		c5.487,0.688,10.476-3.213,11.154-8.694c0.68-5.481-3.213-10.475-8.693-11.154c-1.612-0.2-3.21-0.301-4.75-0.301
		c-8.58,0-16.511,2.833-22.906,7.612c-0.356-2.785-0.557-5.602-0.557-8.454v-66.923c0-9.766,7.945-17.71,17.711-17.71h17.71v35.421
		h-10.466c-5.522,0-10,4.477-10,10s4.478,10,10,10h10.466v0.232c0,5.523,4.478,10,10,10s10-4.477,10-10v-65.653v0v0v-8.198
		c0.274,0.292,0.543,0.586,0.828,0.871c7.476,7.475,17.296,11.213,27.115,11.213c8.038,0,16.075-2.509,22.828-7.518
		c1.4,2.099,3.017,4.077,4.842,5.901c7.242,7.243,16.872,11.231,27.115,11.231c8.402,0,16.389-2.688,22.988-7.651
		c1.507,2.379,3.279,4.613,5.318,6.653c7.242,7.243,16.872,11.231,27.115,11.231c8.405,0,16.395-2.691,22.994-7.657
		c1.491,2.363,3.254,4.602,5.311,6.659c7.476,7.475,17.296,11.213,27.115,11.213c2.722,0,5.442-0.298,8.114-0.873v61.558
		c0,17.977-7.119,34.784-20.047,47.325c-0.04,0.039-0.072,0.084-0.112,0.124c-7.3,7.043-16.196,12.367-25.807,15.418
		c-5.265,1.671-8.177,7.293-6.506,12.557c1.352,4.257,5.288,6.977,9.528,6.977c1.003,0,2.022-0.152,3.028-0.471
		c7.289-2.314,14.262-5.627,20.692-9.796l21.15,90.322C285.624,447.623,208.281,447.609,142.014,416.925z"/>
	<path d="M326.349,354.76c-1.259-5.378-6.639-8.715-12.017-7.457c-5.377,1.259-8.716,6.64-7.456,12.017l11.145,47.592
		c1.079,4.611,5.188,7.723,9.728,7.723c0.755,0,1.522-0.086,2.289-0.266c5.377-1.259,8.716-6.64,7.456-12.017L326.349,354.76z"/>
</g>
<g>
</g>
<g>
</g>
<g>
</g>
<g>
</g>
<g>
</g>
<g>
</g>
<g>
</g>
<g>
</g>
<g>
</g>
<g>
</g>
<g>
</g>
<g>
</g>
<g>
</g>
<g>
</g>
<g>
</g>
</svg>
